<svg xmlns="http://www.w3.org/2000/svg" viewBox="0 0 213.68 35"><defs><style>.cls-1{fill:#5493c8;}.cls-2{fill:#a6bfc1;}.cls-3{fill:#fff;}</style></defs><title>Asset 1</title><g id="Layer_2" data-name="Layer 2"><g id="Layer_1-2" data-name="Layer 1"><rect class="cls-1" x="119.13" width="94.55" height="35"/><rect class="cls-2" width="119.13" height="35"/><path class="cls-3" d="M13.11,22.1V12.86h3.17a3.84,3.84,0,0,1,2.38.63,2.19,2.19,0,0,1,.82,1.87,2,2,0,0,1-.34,1.14,2.23,2.23,0,0,1-1,.79,2.05,2.05,0,0,1,1.16.76,2.27,2.27,0,0,1,.41,1.35,2.44,2.44,0,0,1-.84,2,3.61,3.61,0,0,1-2.39.7Zm1.61-5.35h1.57a1.85,1.85,0,0,0,1.17-.34,1.17,1.17,0,0,0,.42-1,1.17,1.17,0,0,0-.39-1,1.91,1.91,0,0,0-1.21-.31H14.72Zm0,1.18v2.89H16.5a1.72,1.72,0,0,0,1.18-.38,1.32,1.32,0,0,0,.43-1,1.32,1.32,0,0,0-1.48-1.47Z"/><path class="cls-3" d="M30.93,12.86V19A3,3,0,0,1,30,21.37a3.61,3.61,0,0,1-2.51.86A3.62,3.62,0,0,1,25,21.38,3,3,0,0,1,24,19V12.86h1.6V19a2,2,0,0,0,.46,1.41,1.84,1.84,0,0,0,1.39.49c1.23,0,1.85-.65,1.85-2V12.86Z"/><path class="cls-3" d="M37.2,22.1H35.6V12.86h1.6Z"/><path class="cls-3" d="M43.64,20.82h4.2V22.1H42V12.86h1.61Z"/><path class="cls-3" d="M57.3,14.15H54.42v8H52.83v-8H50V12.86H57.3Z"/><path class="cls-3" d="M74.34,19.81l1.42-6.95h1.6L75.22,22.1H73.69l-1.76-6.75-1.8,6.75H68.59l-2.13-9.24h1.59l1.44,6.94,1.76-6.94H72.6Z"/><path class="cls-3" d="M83.09,22.1h-1.6V12.86h1.6Z"/><path class="cls-3" d="M94.41,14.15H91.53v8H89.94v-8H87.08V12.86h7.33Z"/><path class="cls-3" d="M105.82,22.1h-1.59V18h-4.14v4.1h-1.6V12.86h1.6V16.7h4.14V12.86h1.59Z"/><path class="cls-3" d="M134.62,15v2h4v2h-4v3.12h-2.57V13h7.13v2Z"/><path class="cls-3" d="M147.23,19.66h-1.41v2.42h-2.57V13h4.16a5.29,5.29,0,0,1,2.15.41,3.31,3.31,0,0,1,1.4,1.17,3.23,3.23,0,0,1,.49,1.79,3.14,3.14,0,0,1-.46,1.72,3.1,3.1,0,0,1-1.32,1.15l2,2.86h-2.76Zm1.22-4.3a1.81,1.81,0,0,0-1.2-.35h-1.43v2.67h1.43a1.81,1.81,0,0,0,1.2-.35,1.22,1.22,0,0,0,.4-1A1.25,1.25,0,0,0,148.45,15.36Z"/><path class="cls-3" d="M161.83,20.31H158l-.72,1.77h-2.62l4-9.1h2.53l4,9.1h-2.68Zm-.76-1.89L159.9,15.5l-1.17,2.92Z"/><path class="cls-3" d="M175.11,13.39a3.28,3.28,0,0,1,1.41,1.17,3.23,3.23,0,0,1,.49,1.79,3,3,0,0,1-1.9,2.94,5,5,0,0,1-2.14.41h-1.59v2.38h-2.57V13H173A5.2,5.2,0,0,1,175.11,13.39ZM174,17.33a1.22,1.22,0,0,0,.4-1,1.25,1.25,0,0,0-.4-1,1.81,1.81,0,0,0-1.2-.35h-1.43v2.67h1.43A1.81,1.81,0,0,0,174,17.33Z"/><path class="cls-3" d="M187.42,13.39a3.28,3.28,0,0,1,1.41,1.17,3.23,3.23,0,0,1,.49,1.79,3,3,0,0,1-1.9,2.94,5,5,0,0,1-2.14.41h-1.59v2.38h-2.57V13h4.16A5.2,5.2,0,0,1,187.42,13.39Zm-1.1,3.94a1.22,1.22,0,0,0,.4-1,1.25,1.25,0,0,0-.4-1,1.81,1.81,0,0,0-1.2-.35h-1.43v2.67h1.43A1.81,1.81,0,0,0,186.32,17.33Z"/><path class="cls-3" d="M200.74,20.09v2h-7.31V13h7.14v2H196v1.54h4v1.92h-4v1.66Z"/></g></g></svg>