<svg xmlns="http://www.w3.org/2000/svg" viewBox="0 0 236.67 35"><defs><style>.cls-1{fill:#5492c7;}.cls-2{fill:#a5bec0;}.cls-3{fill:#fff;}</style></defs><title>Asset 1</title><g id="Layer_2" data-name="Layer 2"><g id="Layer_1-2" data-name="Layer 1"><rect class="cls-1" x="130.03" width="106.64" height="35"/><rect class="cls-2" width="130.03" height="35"/><path class="cls-3" d="M14.52,18.67V22.1H12.91V12.86h3.54a3.62,3.62,0,0,1,2.46.8,2.74,2.74,0,0,1,.91,2.14,2.59,2.59,0,0,1-.9,2.11,3.69,3.69,0,0,1-2.49.76Zm0-1.29h1.93a1.88,1.88,0,0,0,1.3-.41,1.47,1.47,0,0,0,.45-1.16,1.62,1.62,0,0,0-.45-1.2,1.78,1.78,0,0,0-1.26-.46h-2Z"/><path class="cls-3" d="M31.46,17.72A5.71,5.71,0,0,1,31,20.1a3.62,3.62,0,0,1-1.35,1.58,3.93,3.93,0,0,1-4,0,3.61,3.61,0,0,1-1.36-1.57,5.44,5.44,0,0,1-.48-2.34v-.52a5.63,5.63,0,0,1,.48-2.39,3.57,3.57,0,0,1,1.35-1.58,3.64,3.64,0,0,1,2-.55,3.72,3.72,0,0,1,2,.54A3.45,3.45,0,0,1,31,14.83a5.66,5.66,0,0,1,.49,2.37Zm-1.61-.48a4,4,0,0,0-.58-2.36,1.92,1.92,0,0,0-1.65-.82,1.89,1.89,0,0,0-1.63.82,4,4,0,0,0-.6,2.31v.53a4,4,0,0,0,.6,2.35,2,2,0,0,0,3.28,0,4,4,0,0,0,.58-2.37Z"/><path class="cls-3" d="M43.16,19.81l1.43-6.95h1.59L44.05,22.1H42.51l-1.76-6.75L39,22.1H37.41l-2.13-9.24h1.59l1.44,6.94,1.76-6.94h1.35Z"/><path class="cls-3" d="M55.62,18h-3.8v2.85h4.44V22.1h-6V12.86h6v1.29H51.82V16.7h3.8Z"/><path class="cls-3" d="M63.82,18.54H62V22.1H60.42V12.86h3.25a3.83,3.83,0,0,1,2.47.71A2.55,2.55,0,0,1,67,15.65a2.68,2.68,0,0,1-.44,1.56,3,3,0,0,1-1.25,1L67.39,22v.08H65.67ZM62,17.25h1.65A1.85,1.85,0,0,0,65,16.84a1.45,1.45,0,0,0,.46-1.12A1.49,1.49,0,0,0,65,14.57a1.8,1.8,0,0,0-1.26-.42H62Z"/><path class="cls-3" d="M76.8,18H73v2.85h4.44V22.1h-6V12.86h6v1.29H73V16.7h3.8Z"/><path class="cls-3" d="M81.61,22.1V12.86h2.73a4.31,4.31,0,0,1,2.17.54A3.79,3.79,0,0,1,88,15a4.9,4.9,0,0,1,.52,2.3v.46A4.86,4.86,0,0,1,88,20a3.65,3.65,0,0,1-1.5,1.54,4.44,4.44,0,0,1-2.21.54Zm1.6-8v6.67h1.05A2.44,2.44,0,0,0,86.2,20a3.47,3.47,0,0,0,.69-2.27v-.52A3.47,3.47,0,0,0,86.23,15a2.29,2.29,0,0,0-1.89-.8Z"/><path class="cls-3" d="M99.06,22.1V12.86h3.16a3.85,3.85,0,0,1,2.39.63,2.19,2.19,0,0,1,.82,1.87,2,2,0,0,1-.34,1.14,2.26,2.26,0,0,1-1,.79,2,2,0,0,1,1.16.76,2.21,2.21,0,0,1,.41,1.35,2.48,2.48,0,0,1-.83,2,3.62,3.62,0,0,1-2.39.7Zm1.6-5.35h1.58a1.85,1.85,0,0,0,1.17-.34,1.17,1.17,0,0,0,.42-1,1.17,1.17,0,0,0-.39-1,1.94,1.94,0,0,0-1.22-.31h-1.56Zm0,1.18v2.89h1.79a1.74,1.74,0,0,0,1.18-.38,1.33,1.33,0,0,0,.42-1,1.32,1.32,0,0,0-1.47-1.47Z"/><path class="cls-3" d="M112.78,17.24l2.13-4.38h1.78l-3.1,5.84v3.4H112V18.7l-3.11-5.84h1.79Z"/><path class="cls-3" d="M150.26,20.09v2H143V13h7.14v2H145.5v1.54h4v1.92h-4v1.66Z"/><path class="cls-3" d="M158.52,19.67h-1.4v2.41h-2.57V13h4.16a5.24,5.24,0,0,1,2.14.41,3.28,3.28,0,0,1,1.41,1.17,3.31,3.31,0,0,1,.49,1.79,3.14,3.14,0,0,1-.46,1.72A3.1,3.1,0,0,1,161,19.22l2,2.86h-2.75Zm1.23-4.31a1.81,1.81,0,0,0-1.2-.35h-1.43v2.67h1.43a1.81,1.81,0,0,0,1.2-.35,1.25,1.25,0,0,0,.4-1A1.29,1.29,0,0,0,159.75,15.36Z"/><path class="cls-3" d="M173.33,13.39a3.1,3.1,0,0,1,1.9,3,3.08,3.08,0,0,1-1.9,2.94,5.08,5.08,0,0,1-2.14.41H169.6v2.38H167V13h4.16A5.24,5.24,0,0,1,173.33,13.39Zm-1.1,3.94a1.25,1.25,0,0,0,.4-1,1.29,1.29,0,0,0-.4-1A1.81,1.81,0,0,0,171,15H169.6v2.67H171A1.81,1.81,0,0,0,172.23,17.33Z"/><path class="cls-3" d="M188,13v9.1h-2.11l-4-4.85v4.85h-2.52V13h2.12l4,4.85V13Z"/><path class="cls-3" d="M200,20.09v2h-7.3V13h7.13v2h-4.59v1.54h4.05v1.92h-4.05v1.66Z"/><path class="cls-3" d="M209.94,22.08l-1.89-2.82-1.86,2.82h-2.93l3.31-4.6L203.4,13h2.9l1.82,2.63L209.91,13h2.78l-3.17,4.4,3.38,4.7Z"/><path class="cls-3" d="M218.18,15h-2.79V13h8.15v2h-2.79v7.06h-2.57Z"/></g></g></svg>